<svg width="112" height="34" viewBox="0 0 112 34" fill="none" xmlns="http://www.w3.org/2000/svg">
<g clip-path="url(#clip0_717_8315)">
<path d="M47.4589 14.2172C45.7682 11.5856 43.0701 10.042 39.6406 10.042C33.5611 10.042 29.2168 14.853 29.2168 22.0219C29.2168 29.1908 33.5148 34.0001 39.6406 34.0001C43.0667 34.0001 45.7682 32.4565 47.4589 29.8708V33.3643H52.6717V10.6778H47.4589V14.2172ZM41.1036 29.4628C37.2184 29.4628 34.6574 26.5133 34.6574 22.0219C34.6574 17.5305 37.227 14.5793 41.1036 14.5793C44.9442 14.5793 47.5052 17.5288 47.5052 22.0219C47.5052 26.515 44.9442 29.4628 41.1036 29.4628Z" fill="#084243"/>
<path d="M62.2733 10.6777H57.0605V33.3642H62.2733V10.6777Z" fill="#084243"/>
<path d="M71.69 17.0307C71.69 15.397 73.427 14.2172 76.0788 14.2172C79.2342 14.2172 81.2916 15.9869 80.6509 18.5726H85.7266C86.6859 13.4454 82.2509 10.042 76.1336 10.042C70.6005 10.042 66.3487 12.8113 66.3487 17.352C66.3487 25.8367 81.0706 22.5693 81.0706 27.1066C81.0706 28.7403 79.1965 29.8266 76.4077 29.8266C72.8411 29.8266 70.7375 28.0569 71.0579 25.2451H66.0198C65.655 30.7327 69.9067 34.0001 76.3529 34.0001C82.2971 34.0001 86.4598 31.3226 86.4598 26.7394C86.4581 18.1187 71.69 21.6122 71.69 17.0307Z" fill="#084243"/>
<path d="M106.303 26.1954C105.525 28.283 103.514 29.4628 100.953 29.4628C97.9927 29.4628 96.0519 28.0059 95.1765 25.4559C99.2587 25.4134 106.423 24.6943 111.55 20.6466C112.053 14.5708 107.997 10.042 100.999 10.042C93.7752 10.042 89.2031 14.802 89.2031 22.0219C89.2031 29.2418 93.729 34.0001 100.867 34.0001C106.582 34.0001 110.65 30.9605 111.976 26.1954H106.303ZM100.907 14.3991C104.057 14.3991 105.886 16.0209 106.09 18.6032C102.075 20.7775 97.4908 21.3334 94.6968 21.4507C94.6938 20.8973 94.7373 20.3445 94.827 19.7983C95.3752 16.3048 97.4788 14.3991 100.907 14.3991Z" fill="#084243"/>
<path d="M67.0847 3.485L63.5729 0C62.5362 1.027 61.1312 1.60381 59.6664 1.60381C58.2015 1.60381 56.7965 1.027 55.7598 0L52.248 3.485C54.217 5.43468 56.8849 6.52963 59.6664 6.52963C62.4478 6.52963 65.1157 5.43468 67.0847 3.485Z" fill="#084243"/>
<path d="M20.7143 20.74C21.0809 20.4215 21.4303 20.0889 21.7627 19.7421C25.79 15.5193 25.9356 10.8443 25.9236 10.6403C25.9236 5.06087 21.8997 1.61157 14.9054 1.61157H0.00195312V33.3642H5.53335V25.8485C9.34144 25.636 12.6493 24.9747 15.4364 23.8697C16.6356 27.9497 19.695 33.3642 27.462 33.3642V28.4342C22.2389 28.4359 21.0021 23.2747 20.7143 20.74ZM5.53164 6.23897H14.8591C18.1465 6.23897 20.0445 7.78257 20.2364 10.6403C20.2364 10.6692 20.6886 13.7003 18.155 16.354C15.6214 19.0077 11.3029 20.5496 5.53164 20.9185V6.23897Z" fill="#084243"/>
</g>
<defs>
<clipPath id="clip0_717_8315">
<rect width="111.973" height="34" fill="white"/>
</clipPath>
</defs>
</svg>
